<svg width="164" height="45" viewBox="0 0 164 45" fill="none" xmlns="http://www.w3.org/2000/svg">
<path d="M17.844 44L8.04 12.08H7.812C7.85 12.84 7.907 13.98 7.983 15.5C8.059 17.02 8.135 18.654 8.211 20.402C8.287 22.112 8.325 23.67 8.325 25.076V44H0.63V3.302H12.372L22.005 34.424H22.176L32.379 3.302H44.121V44H36.084V24.734C36.084 23.442 36.103 21.96 36.141 20.288C36.217 18.616 36.274 17.039 36.312 15.557C36.388 14.037 36.445 12.897 36.483 12.137H36.255L25.767 44H17.844ZM81.7395 28.382C81.7395 30.966 81.3785 33.265 80.6565 35.279C79.9725 37.293 78.9655 39.003 77.6355 40.409C76.3435 41.777 74.7665 42.822 72.9045 43.544C71.0425 44.228 68.9335 44.57 66.5775 44.57C64.4115 44.57 62.3975 44.228 60.5355 43.544C58.7115 42.822 57.1345 41.777 55.8045 40.409C54.4745 39.003 53.4295 37.293 52.6695 35.279C51.9475 33.265 51.5865 30.966 51.5865 28.382C51.5865 24.924 52.1945 22.017 53.4105 19.661C54.6265 17.267 56.3745 15.443 58.6545 14.189C60.9345 12.935 63.6325 12.308 66.7485 12.308C69.6745 12.308 72.2585 12.935 74.5005 14.189C76.7425 15.443 78.5095 17.267 79.8015 19.661C81.0935 22.017 81.7395 24.924 81.7395 28.382ZM60.2505 28.382C60.2505 30.434 60.4595 32.163 60.8775 33.569C61.3335 34.937 62.0365 35.982 62.9865 36.704C63.9365 37.388 65.1715 37.73 66.6915 37.73C68.2115 37.73 69.4275 37.388 70.3395 36.704C71.2895 35.982 71.9735 34.937 72.3915 33.569C72.8475 32.163 73.0755 30.434 73.0755 28.382C73.0755 26.33 72.8475 24.62 72.3915 23.252C71.9735 21.884 71.2895 20.858 70.3395 20.174C69.3895 19.49 68.1545 19.148 66.6345 19.148C64.3925 19.148 62.7585 19.927 61.7325 21.485C60.7445 23.005 60.2505 25.304 60.2505 28.382ZM94.8052 44L82.9492 12.878H91.8412L97.8262 30.605C98.0542 31.289 98.2442 32.011 98.3962 32.771C98.5862 33.531 98.7192 34.272 98.7952 34.994C98.9092 35.716 98.9852 36.381 99.0232 36.989H99.2512C99.2892 36.343 99.3652 35.659 99.4792 34.937C99.5932 34.215 99.7262 33.493 99.8782 32.771C100.068 32.011 100.277 31.289 100.505 30.605L106.49 12.878H115.382L103.526 44H94.8052ZM128.09 12.878V44H119.597V12.878H128.09ZM123.872 0.679997C125.126 0.679997 126.209 0.983998 127.121 1.592C128.033 2.162 128.489 3.245 128.489 4.841C128.489 6.399 128.033 7.482 127.121 8.09C126.209 8.698 125.126 9.002 123.872 9.002C122.58 9.002 121.478 8.698 120.566 8.09C119.692 7.482 119.255 6.399 119.255 4.841C119.255 3.245 119.692 2.162 120.566 1.592C121.478 0.983998 122.58 0.679997 123.872 0.679997ZM149.54 12.308C152.428 12.308 154.898 12.859 156.95 13.961C159.04 15.063 160.655 16.659 161.795 18.749C162.935 20.839 163.505 23.404 163.505 26.444V30.548H143.441C143.517 32.942 144.22 34.823 145.55 36.191C146.918 37.559 148.799 38.243 151.193 38.243C153.207 38.243 155.031 38.053 156.665 37.673C158.299 37.255 159.99 36.628 161.738 35.792V42.347C160.218 43.107 158.603 43.658 156.893 44C155.221 44.38 153.188 44.57 150.794 44.57C147.678 44.57 144.923 44 142.529 42.86C140.135 41.682 138.254 39.915 136.886 37.559C135.518 35.203 134.834 32.239 134.834 28.667C134.834 25.019 135.442 21.998 136.658 19.604C137.912 17.172 139.641 15.348 141.845 14.132C144.049 12.916 146.614 12.308 149.54 12.308ZM149.597 18.35C147.963 18.35 146.595 18.882 145.493 19.946C144.429 21.01 143.802 22.663 143.612 24.905H155.525C155.525 23.651 155.297 22.53 154.841 21.542C154.423 20.554 153.777 19.775 152.903 19.205C152.029 18.635 150.927 18.35 149.597 18.35Z" fill="#7CAF31"/>
</svg>
