<svg width="26" height="21" viewBox="0 0 26 21" fill="none" xmlns="http://www.w3.org/2000/svg">
<path d="M13.0231 4.26184L3.9461 11.7449C3.9461 11.7555 3.94344 11.771 3.93813 11.7922C3.93294 11.8132 3.93018 11.8285 3.93018 11.8393V19.4167C3.93018 19.6903 4.0302 19.9274 4.23019 20.127C4.43013 20.3268 4.6669 20.4273 4.94054 20.4273H11.0023V14.3653H15.0441V20.4276H21.1058C21.3794 20.4276 21.6165 20.3273 21.8161 20.1271C22.0161 19.9276 22.1165 19.6903 22.1165 19.4167V11.8393C22.1165 11.7973 22.1107 11.7655 22.1005 11.7449L13.0231 4.26184Z" fill="#B5B4B4"/>
<path d="M25.5731 10.0399L22.1161 7.16678V0.725876C22.1161 0.578625 22.0688 0.457539 21.9738 0.362766C21.8796 0.268101 21.7585 0.220772 21.6109 0.220772H18.58C18.4325 0.220772 18.3115 0.268101 18.2167 0.362766C18.1221 0.457539 18.0748 0.578686 18.0748 0.725876V3.8042L14.223 0.58366C13.8866 0.310013 13.4866 0.173218 13.0235 0.173218C12.5604 0.173218 12.1604 0.310013 11.8237 0.58366L0.472905 10.0399C0.367683 10.124 0.310012 10.2371 0.299286 10.3792C0.288614 10.5212 0.325384 10.6452 0.409706 10.7504L1.38845 11.9186C1.47277 12.0133 1.58313 12.0712 1.71998 12.0923C1.84633 12.1029 1.97267 12.066 2.09902 11.9819L13.0231 2.87278L23.9474 11.9818C24.0317 12.0552 24.142 12.0919 24.2789 12.0919H24.3263C24.463 12.0711 24.5731 12.0128 24.6579 11.9184L25.6367 10.7503C25.7209 10.6449 25.7578 10.5211 25.7468 10.379C25.736 10.2373 25.6781 10.1241 25.5731 10.0399Z" fill="#B5B4B4"/>
</svg>
