<svg width="15" height="16" viewBox="0 0 15 16" fill="none" xmlns="http://www.w3.org/2000/svg">
<path d="M8.94281 6.49342V6.49576C8.89641 6.46623 8.80125 6.4517 8.68172 6.4517V9.46201C8.85 9.46201 8.955 9.42311 8.99438 9.35701C9.03328 9.29373 9.05297 9.10576 9.05297 8.80529V7.01326C9.05297 6.80795 9.05062 6.67623 9.03328 6.61998C9.01875 6.55904 8.99156 6.51732 8.94516 6.49295L8.94281 6.49342ZM14.0086 0.49998H1.01297C0.751673 0.515014 0.504779 0.624627 0.318377 0.808354C0.131976 0.992082 0.0188075 1.23737 0 1.49842L0 14.4865C0.0365625 15.0336 0.444375 15.4508 0.971719 15.4972C0.981562 15.4995 0.991406 15.4995 1.00125 15.4995H14.0287C14.2942 15.4729 14.5404 15.3489 14.7198 15.1514C14.8993 14.954 14.9993 14.6971 15.0005 14.4303V1.56873C14.9991 1.29874 14.8965 1.03909 14.7129 0.841105C14.5294 0.643123 14.2782 0.521225 14.0091 0.499512L14.0086 0.49998ZM2.99578 10.2654H1.80422V5.66326H2.99578V10.2654ZM7.08234 10.2654H6.04453V7.15764L5.62453 10.2631H4.8825L4.44563 7.22607L4.44094 10.2631H3.40078V5.66326H4.94109C4.995 5.98811 5.04141 6.31764 5.085 6.64717L5.25328 7.81436L5.53172 5.66326H7.08187L7.08234 10.2654ZM10.193 8.90326C10.193 9.31107 10.1663 9.5867 10.1269 9.72826C10.0969 9.85584 10.0257 9.97 9.92438 10.0531C9.8221 10.1385 9.6993 10.1957 9.56813 10.219C9.42891 10.2458 9.21187 10.2654 8.93109 10.2654L8.92875 10.2631H7.48828V5.66326H8.37937C8.95078 5.66326 9.285 5.69279 9.48516 5.74154C9.68766 5.79779 9.84422 5.88311 9.95156 6.00545C10.0542 6.11795 10.1227 6.2567 10.147 6.40811C10.1789 6.55482 10.1934 6.84779 10.1934 7.28467L10.193 8.90326ZM13.2839 9.19857C13.2839 9.47935 13.2544 9.67717 13.2277 9.81873C13.1888 9.95795 13.1058 10.07 12.9736 10.1726C12.832 10.2776 12.6731 10.324 12.4852 10.324C12.3483 10.324 12.1725 10.2851 12.0605 10.2387C11.9356 10.1723 11.8258 10.0809 11.738 9.97014L11.6672 10.2654H10.5928V5.66326L10.5806 5.66092H11.7061V7.15998C11.7989 7.05029 11.9039 6.96732 12.0234 6.91107C12.1615 6.85842 12.3079 6.83111 12.4556 6.83045C12.5972 6.83045 12.7364 6.85248 12.8681 6.90357C12.9755 6.94764 13.0683 7.01842 13.1414 7.10889C13.1977 7.18717 13.2342 7.27717 13.2539 7.37279C13.2708 7.45811 13.2806 7.64139 13.2806 7.91467V9.19904L13.2839 9.19857ZM11.9241 7.50217C11.8509 7.50217 11.8045 7.52889 11.7848 7.57764C11.7652 7.62873 11.7483 7.75811 11.7483 7.96811V9.18404C11.7483 9.38654 11.7652 9.51873 11.7848 9.57451C11.7974 9.60091 11.8177 9.62293 11.8429 9.63772C11.8681 9.65251 11.8972 9.65939 11.9264 9.65748C11.9995 9.65748 12.0947 9.62795 12.1144 9.56936C12.1313 9.50842 12.1411 9.3692 12.1411 9.14935L12.1608 9.14701V7.96529C12.1608 7.77732 12.1509 7.64795 12.1242 7.58936C12.0947 7.52607 12.0023 7.50123 11.9264 7.50123L11.9241 7.50217Z" fill="white"/>
</svg>
